<?xml version="1.0" encoding="utf-8"?>
<!-- Generator: Adobe Illustrator 27.8.1, SVG Export Plug-In . SVG Version: 6.00 Build 0)  -->
<svg version="1.1" xmlns="http://www.w3.org/2000/svg" xmlns:xlink="http://www.w3.org/1999/xlink" x="0px" y="0px"
	 viewBox="0 0 1200 1200" style="enable-background:new 0 0 1200 1200;" xml:space="preserve">
<style type="text/css">
	.st0{display:none;}
	.st1{fill:#326D8E;}
	.st2{display:inline;fill:#538BDB;}
	.st3{fill:#FFFFFF;stroke:#000000;stroke-width:25;stroke-linecap:round;stroke-miterlimit:10;}
	.st4{display:inline;}
	.st5{display:inline;fill:#E93323;}
	.st6{display:inline;fill:none;stroke:#000000;stroke-width:25;stroke-linecap:round;stroke-miterlimit:10;}
	.st7{display:inline;fill:#FFFFFF;}
	.st8{clip-path:url(#Palm_fill_00000143594875309836540060000015342914526224515218_);}
	.st9{fill:#E93323;}
	.st10{fill:#FFFFFF;}
	.st11{display:inline;fill:none;stroke:#E93323;stroke-width:30;stroke-miterlimit:10;}
	.st12{display:inline;fill:none;stroke:#000000;stroke-width:27;stroke-linecap:round;stroke-miterlimit:10;}
	.st13{display:inline;fill:none;stroke:#000000;stroke-width:26;stroke-linecap:round;stroke-miterlimit:10;}
	.st14{stroke:#000000;stroke-width:15;stroke-miterlimit:10;}
</style>
<g id="BG" class="st0">
	<rect x="88" y="88" class="st1" width="1022.98" height="1022.98"/>
	<circle class="st2" cx="600" cy="600" r="578.98"/>
</g>
<g id="Hand-Filled" class="st0">
	<path id="Wrist" class="st3" d="M266.54,1017.33c0,0,83.42-63.98,79-149.32s419.71,36.33,388.27,100s-201,161.32-201,161.32"/>
	<path id="Outline_00000122696651734974680830000018413986224921930895_" d="M877.93,634.35c12.16,10.01,12.89,23.47,12.4,37.47
		c-0.89,25.33-0.17,50.8-2.47,75.99c-4.65,50.91-21.97,97.85-49.37,140.9c-30.97,48.65-71.05,87.42-123.95,111.82
		c-33.69,15.54-69.07,23.76-106.21,24.59c-34.86,0.78-69.32-0.95-102.98-11.5c-53.15-16.67-97.24-46.52-132.23-89.74
		c-28.55-35.27-47.18-75.38-55.08-120.02c-3.07-17.33-4.6-35.16-4.65-52.77c-0.38-132.2-0.23-264.39-0.22-396.59
		c0-26.07,17.45-40.63,43.47-36.84c15.13,2.21,29.29,6.89,43.34,15.67c1.47-5.46,2.73-10.03,3.93-14.61
		c10.06-38.5,19.83-77.07,30.25-115.47c6.18-22.78,27.7-31.48,51.73-21.75c46.43,18.79,70.9,67.93,58.02,116.43
		c-2.5,9.41-4.79,18.87-5.92,29.03c1.31-1.7,2.68-3.36,3.91-5.12c15.28-21.8,30.51-43.63,45.81-65.41
		c13.05-18.58,34.26-21.77,52.27-7.93c39.99,30.73,50.14,85.68,22.59,128.06c-20.22,31.09-39.92,62.4-55.42,96.17
		c-1.05,2.29-2.02,4.61-3.63,8.29c2.8-0.72,4.54-0.93,6.08-1.59c85.59-37.07,177.03-15.79,237.64,55.5
		c12.42,14.6,24.46,29.53,36.48,44.47c14.7,18.29,13.49,35.44-3.37,52.03C879.77,632.01,879.28,632.72,877.93,634.35z
		 M340.92,565.85c0.01,0,0.03,0,0.04,0c0,60.98-0.24,121.97,0.16,182.95c0.11,16.14,0.8,32.52,3.63,48.37
		c9.71,54.42,35.37,100.42,76.33,137.6c33.73,30.61,73.07,50.08,117.88,58.77c23.44,4.55,47.03,4.6,70.67,3.99
		c37.68-0.98,73.47-10.1,106.24-28.64c76.85-43.5,120.62-111.26,140.36-195.83c8.47-36.26,6.78-73.3,6.64-110.17
		c-0.02-5.72-2.96-8.67-8.67-8.76c-11.21-0.18-22.14,1.16-32.19,6.56c-22.9,12.31-34.13,31.65-34.86,57.53
		c-0.82,29.1-21.14,53.37-49.86,58.09c-20.9,3.43-41.99,2.83-62.78-2.28c-43.67-10.72-77.75-51.39-79.39-96.32
		c-1.6-43.88,16.86-77.53,54.83-99.69c35.2-20.54,78.69-17.2,108.08,7.95c6.75,5.78,12.25,13.01,18.41,19.5
		c22.7,23.89,59.93,26.52,84.54,6.02c6.09-5.08,6.47-8.33,1.42-14.51c-12.41-15.17-24.76-30.39-37.34-45.42
		c-59.28-70.79-161.36-83.06-235.61-28.23c-2.67,1.97-4.9,5.36-5.97,8.54c-4.71,13.9-8.78,28.01-13.36,41.96
		c-2.45,7.47-9.69,11.18-16.73,9.12c-7.17-2.1-11.52-9.74-9.48-17.19c12.66-46.13,29.29-90.78,52.38-132.69
		c13.64-24.76,29.34-48.39,43.97-72.62c18.08-29.94,10.9-68.74-16.4-89.54c-6.47-4.93-9.31-4.54-14.13,2.23
		c-6.18,8.67-12.27,17.41-18.39,26.12c-24.73,35.19-49.87,70.13-68.87,108.94c-1.56,3.19-3.06,6.74-3.29,10.21
		c-2.39,35.49-4.96,70.99-6.53,106.52c-0.93,21.07-0.09,42.21-0.26,63.32c-0.03,3.53-0.42,7.37-1.88,10.49
		c-2.61,5.62-9.42,8.2-15.18,6.66c-6.05-1.62-10.22-6.9-10.26-13.82c-0.13-22.17,0.02-44.35-0.08-66.53
		c-0.37-79.79,10.88-157.97,32.44-234.72c9.89-35.23-10.85-73.64-45.71-84.62c-6.22-1.96-9.64-0.1-11.32,6.44
		c-11.75,45.75-23.52,91.5-35.03,137.32c-0.75,2.97-0.54,7.2,1.08,9.58c12.94,19.08,17.76,40.17,17.7,62.93
		c-0.2,65.67-0.07,131.35-0.07,197.02c0,2.13,0.07,4.27-0.06,6.4c-0.56,9.02-5.75,14.44-13.78,14.47
		c-8.03,0.03-13.35-5.37-13.96-14.32c-0.17-2.55-0.08-5.12-0.08-7.67c-0.01-66.74-0.46-133.48,0.15-200.22
		c0.38-40.81-30.52-69.46-62.85-72.35c-11.26-1.01-12.58-0.1-12.58,11.39C340.91,426.4,340.92,496.12,340.92,565.85z M790.78,647.6
		c-4.05-1.95-7.11-3.37-10.12-4.87c-13.46-6.7-23.69-17.15-33.18-28.51c-11.04-13.23-25.07-21.17-42.41-21.82
		c-44.5-1.67-80.03,31.2-82.3,75.73c-1.85,36.14,22.95,70.65,58.27,78.6c13.5,3.04,27.85,2.82,41.83,3.04
		c22.75,0.35,36.32-12.85,37.12-35.52c0.86-24.38,9.95-45.01,27.11-62.21C788.25,650.88,789.2,649.52,790.78,647.6z"/>
	<g class="st4">
		<defs>
			<path id="Fill_00000035503819496960294090000009404197655382438301_" d="M340.92,565.85c0-69.73,0-139.45,0-209.18
				c0-11.49,1.33-12.39,12.58-11.39c32.33,2.89,63.22,31.54,62.85,72.35c-0.62,66.73-0.16,133.48-0.15,200.22
				c0,2.56-0.1,5.13,0.08,7.67c0.61,8.95,5.93,14.35,13.96,14.32c8.03-0.03,13.22-5.44,13.78-14.47c0.13-2.12,0.06-4.26,0.06-6.4
				c0-65.67-0.13-131.35,0.07-197.02c0.07-22.77-4.76-43.86-17.7-62.93c-1.62-2.38-1.82-6.61-1.08-9.58
				c11.51-45.81,23.28-91.56,35.03-137.32c1.68-6.54,5.1-8.4,11.32-6.44c34.86,10.98,55.6,49.4,45.71,84.62
				c-21.55,76.76-32.81,154.93-32.44,234.72c0.1,22.18-0.04,44.35,0.08,66.53c0.04,6.92,4.21,12.2,10.26,13.82
				c5.75,1.54,12.57-1.04,15.18-6.66c1.45-3.13,1.85-6.97,1.88-10.49c0.17-21.11-0.67-42.25,0.26-63.32
				c1.57-35.53,4.14-71.03,6.53-106.52c0.23-3.47,1.73-7.02,3.29-10.21c19-38.81,44.14-73.75,68.87-108.94
				c6.12-8.71,12.2-17.45,18.39-26.12c4.82-6.76,7.66-7.16,14.13-2.23c27.3,20.81,34.48,59.6,16.4,89.54
				c-14.63,24.23-30.32,47.85-43.97,72.62c-23.09,41.91-39.72,86.57-52.38,132.69c-2.04,7.45,2.3,15.09,9.48,17.19
				c7.04,2.06,14.27-1.64,16.73-9.12c4.58-13.95,8.65-28.06,13.36-41.96c1.08-3.19,3.3-6.57,5.97-8.54
				c74.24-54.83,176.33-42.56,235.61,28.23c12.58,15.03,24.93,30.25,37.34,45.42c5.05,6.17,4.67,9.43-1.42,14.51
				c-24.61,20.51-61.84,17.87-84.54-6.02c-6.16-6.48-11.66-13.72-18.41-19.5c-29.38-25.15-72.88-28.49-108.08-7.95
				c-37.97,22.16-56.43,55.81-54.83,99.69c1.64,44.92,35.73,85.6,79.39,96.32c20.78,5.1,41.88,5.71,62.78,2.28
				c28.72-4.72,49.04-28.98,49.86-58.09c0.73-25.88,11.96-45.22,34.86-57.53c10.05-5.4,20.98-6.74,32.19-6.56
				c5.71,0.09,8.65,3.03,8.67,8.76c0.14,36.87,1.83,73.91-6.64,110.17c-19.74,84.57-63.51,152.33-140.36,195.83
				c-32.77,18.55-68.56,27.67-106.24,28.64c-23.64,0.61-47.23,0.56-70.67-3.99c-44.81-8.69-84.15-28.16-117.88-58.77
				c-40.96-37.18-66.62-83.18-76.33-137.6c-2.83-15.84-3.52-32.22-3.63-48.37c-0.4-60.98-0.16-121.96-0.16-182.95
				C340.95,565.85,340.93,565.85,340.92,565.85z"/>
		</defs>
		<clipPath id="Fill_00000114065112416299248060000010066868799665122237_">
			<use xlink:href="#Fill_00000035503819496960294090000009404197655382438301_"  style="overflow:visible;"/>
		</clipPath>
	</g>
	<path id="WristFill_00000142889600298241112570000009623842955179685303_" class="st5" d="M612.19,1070.7
		c0,0,82.48-82.13,107.38-148.62s-332.84-177.09-319.89-92.62s-63.64,156.48-63.64,156.48s-4.33,59.62,88.63,92.26
		S612.19,1070.7,612.19,1070.7z"/>
	<path id="Wrist-Line_00000012465536947463440560000013654323620574576823_" class="st6" d="M336.04,985.94
		c0,0,76.59-72.02,63.64-156.48s344.79,26.13,319.89,92.62S612.19,1070.7,612.19,1070.7"/>
	<path id="Outline_00000078018308610723732170000011466870962184825761_" class="st4" d="M905.98,543.64
		c13.1,8.74,15.18,22.06,16.1,36.04c1.66,25.29,4.92,50.56,5.16,75.86c0.47,51.12-12.05,99.55-35.01,145.14
		c-25.94,51.51-61.94,94.1-112.13,123.68c-31.97,18.84-66.34,30.56-103.21,35.11c-34.61,4.27-69.07,6-103.61-1.13
		c-22.91-4.73-44.46-11.93-64.65-21.62c-27.89-13.38-53.19-31.51-75.9-54.42c-31.94-32.23-54.49-70.27-66.82-113.9
		c-6.05-21.42-7.58-29.57-9.91-52.03c-13.62-131.49-26.72-263.04-39.95-394.57c-2.61-25.94,13.3-42.18,39.56-41.01
		c15.27,0.68,29.83,3.93,44.69,11.25c0.92-5.58,1.71-10.25,2.45-14.93c6.15-39.31,12.01-78.67,18.53-117.92
		c3.87-23.28,24.4-34.1,49.3-26.83c48.08,14.05,77.35,60.49,69.4,110.03c-1.54,9.61-2.88,19.26-2.98,29.48
		c1.13-1.83,2.32-3.61,3.37-5.48c13.02-23.22,25.99-46.46,39.03-69.67c11.13-19.8,31.91-25.1,51.21-13.13
		c42.87,26.57,58.48,80.23,35.3,125.15c-17.01,32.96-33.47,66.08-45.51,101.23c-0.82,2.38-1.55,4.79-2.78,8.61
		c2.72-1,4.42-1.38,5.89-2.2c81.44-45.45,174.56-33.44,242.01,31.42c13.82,13.29,27.3,26.93,40.75,40.59
		c16.46,16.72,16.98,33.91,1.86,52.11C907.58,541.13,907.17,541.87,905.98,543.64z M364.81,529.27c0.01,0,0.03,0,0.04,0
		c6.11,60.68,11.98,121.38,18.49,182.01c2.29,21.35,2.7,27.49,8.46,47.76c15.11,53.17,45.26,96.38,89.73,129.26
		c36.63,27.08,77.72,42.51,123.17,46.67c23.78,2.18,47.26-0.14,70.72-3.11c37.39-4.75,72.09-17.4,102.84-39.14
		c72.11-50.98,108.86-122.79,120.04-208.91c4.79-36.93-0.6-73.61-4.43-110.28c-0.6-5.69-3.81-8.32-9.5-7.85
		c-11.17,0.94-21.91,3.37-31.37,9.75c-21.55,14.54-30.78,34.91-28.92,60.73c2.1,29.04-15.69,55.22-43.79,62.79
		c-20.45,5.51-41.5,7.02-62.69,4.02c-44.52-6.29-82.51-43.35-88.64-87.88c-5.99-43.5,9.01-78.83,44.57-104.68
		c32.96-23.97,76.57-25,108.33-2.92c7.3,5.07,13.49,11.72,20.27,17.55c24.98,21.5,62.29,20.39,84.72-2.48
		c5.55-5.66,5.6-8.94-0.04-14.58c-13.87-13.85-27.68-27.76-41.71-41.45c-66.07-64.49-168.87-66.47-237.25-4.49
		c-2.46,2.23-4.33,5.82-5.09,9.1c-3.29,14.3-5.93,28.75-9.09,43.09c-1.69,7.68-8.52,12.09-15.73,10.75
		c-7.35-1.37-12.44-8.54-11.15-16.15c7.97-47.16,20.05-93.26,38.82-137.27c11.09-26.01,24.35-51.09,36.47-76.66
		c14.99-31.6,3.96-69.48-25.29-87.45c-6.93-4.26-9.72-3.58-13.84,3.63c-5.28,9.24-10.46,18.55-15.68,27.83
		c-21.08,37.49-42.59,74.78-57.61,115.29c-1.24,3.33-2.37,7.01-2.26,10.49c1.18,35.55,2.18,71.13,4.17,106.64
		c1.18,21.06,4.14,42.01,6.09,63.03c0.33,3.51,0.32,7.37-0.82,10.63c-2.03,5.86-8.55,9.11-14.43,8.15
		c-6.18-1.01-10.86-5.84-11.6-12.72c-2.35-22.05-4.42-44.13-6.75-66.18c-8.36-79.35-4.99-158.27,8.76-236.79
		c6.31-36.04-18.17-72.19-53.95-79.62c-6.38-1.33-9.6,0.86-10.62,7.54c-7.11,46.7-14.23,93.4-21.1,140.14
		c-0.45,3.03,0.18,7.21,2.03,9.43c14.78,17.68,21.7,38.19,23.91,60.85c6.38,65.36,13.09,130.69,19.66,196.04
		c0.21,2.12,0.5,4.24,0.58,6.37c0.35,9.04-4.27,14.94-12.26,15.78c-7.99,0.84-13.82-4.01-15.32-12.85
		c-0.43-2.52-0.59-5.08-0.85-7.63c-6.69-66.4-13.83-132.77-19.9-199.23c-3.71-40.64-37.32-66.05-69.78-65.69
		c-11.3,0.13-12.53,1.16-11.38,12.59C350.83,390.52,357.82,459.9,364.81,529.27z M820.59,565.55c-4.23-1.53-7.41-2.64-10.55-3.83
		c-14.07-5.32-25.29-14.69-35.86-25.05c-12.31-12.06-27.07-18.55-44.38-17.47c-44.44,2.79-76.5,39.06-74.3,83.59
		c1.78,36.14,29.91,68,65.85,72.37c13.73,1.67,27.99,0.02,41.93-1.16c22.67-1.93,34.85-16.43,33.37-39.06
		c-1.59-24.34,5.39-45.78,20.74-64.61C818.41,569.07,819.21,567.61,820.59,565.55z"/>
	<path id="Palm_fill" class="st7" d="M893.86,573.52c3.83,36.67,9.22,73.37,4.43,110.29c-11.18,86.12-47.93,157.93-120.04,208.91
		c-30.75,21.74-65.45,34.4-102.84,39.14c-23.46,2.98-46.94,5.3-70.71,3.12c-45.46-4.16-86.55-19.59-123.17-46.67
		c-44.48-32.89-74.63-76.1-89.74-129.27c-5.75-20.27-6.16-26.41-8.46-47.75c-6.51-60.63-12.38-121.34-18.49-182.01l-0.04,0
		c-6.99-69.38-13.98-138.75-20.95-208.13c-1.15-11.42,0.08-12.46,11.38-12.58c32.46-0.37,66.06,25.05,69.78,65.68
		c6.07,66.47,13.21,132.82,19.9,199.23c0.26,2.55,0.42,5.11,0.85,7.63c1.5,8.84,7.34,13.68,15.32,12.85
		c7.99-0.83,12.61-6.74,12.26-15.78c-0.08-2.12-0.37-4.24-0.58-6.36c-6.58-65.35-13.29-130.68-19.67-196.05
		c-2.21-22.65-9.13-43.16-23.9-60.84c-1.85-2.22-2.48-6.39-2.03-9.42c6.86-46.74,13.99-93.44,21.1-140.14
		c1.02-6.68,4.23-8.87,10.62-7.54c35.78,7.43,60.27,43.58,53.96,79.62c-13.76,78.53-17.13,157.44-8.76,236.8
		c2.32,22.05,4.4,44.13,6.74,66.18c0.73,6.88,5.42,11.72,11.6,12.72c5.88,0.97,12.39-2.29,14.43-8.15
		c1.13-3.25,1.14-7.12,0.82-10.63c-1.96-21.02-4.91-41.97-6.08-63.03c-2-35.52-3-71.09-4.18-106.64c-0.11-3.48,1.03-7.16,2.26-10.49
		c15.02-40.52,36.53-77.8,57.61-115.3c5.22-9.28,10.4-18.59,15.68-27.83c4.12-7.21,6.9-7.89,13.84-3.63
		c29.26,17.97,40.28,55.86,25.29,87.46c-12.12,25.56-25.37,50.65-36.48,76.65c-18.77,44.02-30.85,90.11-38.81,137.28
		c-1.29,7.62,3.8,14.77,11.14,16.14c7.21,1.35,14.03-3.06,15.73-10.74c3.16-14.34,5.8-28.79,9.09-43.09
		c0.76-3.28,2.63-6.87,5.09-9.1c68.37-61.99,171.18-60.01,237.24,4.49c14.03,13.68,27.84,27.6,41.71,41.45
		c5.64,5.63,5.59,8.91,0.04,14.57c-22.43,22.87-59.74,23.98-84.72,2.49c-6.78-5.84-12.98-12.48-20.27-17.56
		c-31.75-22.08-75.37-21.05-108.33,2.92c-35.56,25.85-50.56,61.18-44.57,104.68c6.13,44.54,44.13,81.59,88.64,87.88
		c21.2,2.99,42.24,1.49,62.69-4.02c28.1-7.57,45.89-33.76,43.79-62.79c-1.87-25.82,7.37-46.19,28.92-60.73
		c9.46-6.38,20.2-8.81,31.37-9.74C890.04,565.2,893.26,567.83,893.86,573.52z"/>
	<g class="st4">
		<defs>
			<path id="Palm_fill_00000116953683246878803110000006443725832154772914_" d="M893.86,573.52c3.83,36.67,9.22,73.37,4.43,110.29
				c-11.18,86.12-47.93,157.93-120.04,208.91c-30.75,21.74-65.45,34.4-102.84,39.14c-23.46,2.98-46.94,5.3-70.71,3.12
				c-45.46-4.16-86.55-19.59-123.17-46.67c-44.48-32.89-74.63-76.1-89.74-129.27c-5.75-20.27-6.16-26.41-8.46-47.75
				c-6.51-60.63-12.38-121.34-18.49-182.01l-0.04,0c-6.99-69.38-13.98-138.75-20.95-208.13c-1.15-11.42,0.08-12.46,11.38-12.58
				c32.46-0.37,66.06,25.05,69.78,65.68c6.07,66.47,13.21,132.82,19.9,199.23c0.26,2.55,0.42,5.11,0.85,7.63
				c1.5,8.84,7.34,13.68,15.32,12.85c7.99-0.83,12.61-6.74,12.26-15.78c-0.08-2.12-0.37-4.24-0.58-6.36
				c-6.58-65.35-13.29-130.68-19.67-196.05c-2.21-22.65-9.13-43.16-23.9-60.84c-1.85-2.22-2.48-6.39-2.03-9.42
				c6.86-46.74,13.99-93.44,21.1-140.14c1.02-6.68,4.23-8.87,10.62-7.54c35.78,7.43,60.27,43.58,53.96,79.62
				c-13.76,78.53-17.13,157.44-8.76,236.8c2.32,22.05,4.4,44.13,6.74,66.18c0.73,6.88,5.42,11.72,11.6,12.72
				c5.88,0.97,12.39-2.29,14.43-8.15c1.13-3.25,1.14-7.12,0.82-10.63c-1.96-21.02-4.91-41.97-6.08-63.03
				c-2-35.52-3-71.09-4.18-106.64c-0.11-3.48,1.03-7.16,2.26-10.49c15.02-40.52,36.53-77.8,57.61-115.3
				c5.22-9.28,10.4-18.59,15.68-27.83c4.12-7.21,6.9-7.89,13.84-3.63c29.26,17.97,40.28,55.86,25.29,87.46
				c-12.12,25.56-25.37,50.65-36.48,76.65c-18.77,44.02-30.85,90.11-38.81,137.28c-1.29,7.62,3.8,14.77,11.14,16.14
				c7.21,1.35,14.03-3.06,15.73-10.74c3.16-14.34,5.8-28.79,9.09-43.09c0.76-3.28,2.63-6.87,5.09-9.1
				c68.37-61.99,171.18-60.01,237.24,4.49c14.03,13.68,27.84,27.6,41.71,41.45c5.64,5.63,5.59,8.91,0.04,14.57
				c-22.43,22.87-59.74,23.98-84.72,2.49c-6.78-5.84-12.98-12.48-20.27-17.56c-31.75-22.08-75.37-21.05-108.33,2.92
				c-35.56,25.85-50.56,61.18-44.57,104.68c6.13,44.54,44.13,81.59,88.64,87.88c21.2,2.99,42.24,1.49,62.69-4.02
				c28.1-7.57,45.89-33.76,43.79-62.79c-1.87-25.82,7.37-46.19,28.92-60.73c9.46-6.38,20.2-8.81,31.37-9.74
				C890.04,565.2,893.26,567.83,893.86,573.52z"/>
		</defs>
		<clipPath id="Palm_fill_00000018216480756683067050000018012831516216984192_">
			<use xlink:href="#Palm_fill_00000116953683246878803110000006443725832154772914_"  style="overflow:visible;"/>
		</clipPath>
		<g style="clip-path:url(#Palm_fill_00000018216480756683067050000018012831516216984192_);">
			<rect x="185.26" y="137.17" class="st9" width="892.05" height="892.05"/>
			
				<rect x="575.08" y="21.21" transform="matrix(0.7071 -0.7071 0.7071 0.7071 -295.2569 667.683)" class="st10" width="166.52" height="1338.07"/>
		</g>
	</g>
	<path id="Whirte_VOer_00000049182338478246994050000002500884057681723013_" class="st11" d="M738.35,928.81
		c-24.11,13.02-57.49,15.94-82.97,18.67C448.9,969.62,382.36,778.34,382.36,763.75"/>
	<path id="Right_00000176009903476830252800000004530347930716827553_" class="st12" d="M786.52,906.01
		c-19.2,11.29-80.14,48.58-143.08,44.01"/>
	<path id="Left_00000107578622606948593970000003349834606593123463_" class="st13" d="M509.19,923.95
		C392.93,866.48,374.88,749.58,370.9,723.04"/>
</g>
<g id="Hand-Hollow">
	<path id="WristFill_00000064311707256648824480000006068771763014578863_" d="M663.04,1153.51c0,0,98.36-97.93,128.05-177.23
		c29.69-79.3-384.97-223.09-369.53-122.37c15.44,100.72-87.82,198.52-87.82,198.52s-5.16,71.09,105.69,110.01
		C550.28,1201.37,663.04,1153.51,663.04,1153.51z"/>
	<path class="st14" d="M998.92,560.64c4.57,43.73,10.99,87.49,5.28,131.52c-13.33,102.7-57.16,188.32-143.14,249.11
		c-36.66,25.92-78.05,41.02-122.63,46.67c-27.97,3.56-55.97,6.32-84.32,3.72c-54.2-4.96-103.2-23.36-146.88-55.65
		c-53.04-39.22-88.99-90.74-107.01-154.15c-6.86-24.17-7.35-31.49-10.08-56.94c-7.76-72.3-14.76-144.69-22.04-217.04l-0.05,0
		c-8.33-82.73-16.67-165.45-24.99-248.18c-1.37-13.62,0.1-14.86,13.57-15c38.7-0.44,78.78,29.87,83.21,78.32
		c7.24,79.26,15.75,158.39,23.73,237.57c0.31,3.04,0.51,6.1,1.01,9.1c1.79,10.55,8.75,16.32,18.27,15.32
		c9.52-0.99,15.04-8.03,14.62-18.81c-0.1-2.53-0.44-5.06-0.69-7.59c-7.85-77.93-15.84-155.83-23.45-233.78
		c-2.64-27.01-10.89-51.47-28.51-72.55c-2.21-2.64-2.96-7.62-2.43-11.24c8.18-55.74,16.68-111.42,25.16-167.11
		c1.21-7.96,5.05-10.58,12.66-8.99c42.67,8.86,71.87,51.97,64.34,94.94c-16.41,93.65-20.42,187.74-10.45,282.37
		c2.77,26.29,5.25,52.62,8.04,78.91c0.87,8.21,6.46,13.97,13.84,15.17c7.01,1.15,14.78-2.73,17.2-9.71
		c1.35-3.88,1.36-8.49,0.98-12.67c-2.33-25.07-5.85-50.05-7.26-75.16c-2.38-42.35-3.57-84.77-4.99-127.16
		c-0.13-4.15,1.23-8.54,2.7-12.51c17.91-48.32,43.56-92.77,68.7-137.49c6.22-11.07,12.4-22.16,18.7-33.19
		c4.91-8.6,8.23-9.41,16.5-4.33c34.89,21.43,48.03,66.61,30.15,104.29c-14.45,30.48-30.26,60.39-43.5,91.4
		c-22.39,52.49-36.79,107.46-46.28,163.7c-1.54,9.08,4.53,17.62,13.29,19.25c8.6,1.62,16.73-3.65,18.76-12.81
		c3.77-17.1,6.91-34.33,10.84-51.38c0.9-3.91,3.13-8.19,6.07-10.85c81.53-73.92,204.12-71.56,282.9,5.35
		c16.73,16.32,33.2,32.91,49.74,49.43c6.73,6.72,6.67,10.63,0.05,17.37c-26.75,27.27-71.23,28.6-101.02,2.97
		c-8.08-6.96-15.47-14.89-24.17-20.94c-37.86-26.33-89.87-25.1-129.18,3.48c-42.4,30.83-60.29,72.96-53.15,124.83
		c7.31,53.11,52.62,97.29,105.7,104.8c25.28,3.57,50.37,1.77,74.76-4.79c33.51-9.03,54.72-40.25,52.22-74.88
		c-2.23-30.79,8.79-55.08,34.49-72.42c11.28-7.61,24.09-10.5,37.41-11.62C994.37,550.72,998.21,553.86,998.92,560.64z"/>
</g>
</svg>
