<?xml version="1.0" encoding="UTF-8" standalone="no" ?>
<!DOCTYPE svg PUBLIC "-//W3C//DTD SVG 1.1//EN" "http://www.w3.org/Graphics/SVG/1.1/DTD/svg11.dtd">
<svg xmlns="http://www.w3.org/2000/svg" xmlns:xlink="http://www.w3.org/1999/xlink" version="1.1" width="540" height="540" viewBox="-20 18 540 540" xml:space="preserve">
<desc>Created with Fabric.js 5.2.4</desc>
<defs>
</defs>
<rect x="0" y="0" width="100%" height="100%" fill="transparent"></rect>
<g transform="matrix(1 0 0 1 270 270)" id="e5d16c20-6116-4609-8051-50cca8dc2316"  >
<rect style="stroke: none; stroke-width: 1; stroke-dasharray: none; stroke-linecap: butt; stroke-dashoffset: 0; stroke-linejoin: miter; stroke-miterlimit: 4; fill: rgb(255,255,255); fill-rule: nonzero; opacity: 1; visibility: hidden;" vector-effect="non-scaling-stroke"  x="-270" y="-270" rx="0" ry="0" width="540" height="540" />
</g>
<g transform="matrix(0 0 0 0 0 0)" id="d274ade1-dab0-4faa-a6ee-5471a053da45"  >
</g>
<g transform="matrix(0.96 0 0 0.96 239.28 293.82)"  >
<path style="stroke: rgb(0,0,0); stroke-width: 0; stroke-dasharray: none; stroke-linecap: butt; stroke-dashoffset: 0; stroke-linejoin: miter; stroke-miterlimit: 4; fill: rgb(0,0,0); fill-rule: nonzero; opacity: 1;" vector-effect="non-scaling-stroke"  transform=" translate(-256, -256.01)" d="M 256 43.01 Q 229 43.01 210.5 61.51 Q 192 80.00999999999999 192 107.00999999999999 Q 192 127.00999999999999 203.5 143.51 Q 215 160.01 235 167.01 L 235 192.01 L 171 192.01 L 171 235.01 L 235 235.01 L 235 425.01 Q 209 420.01 188 411.01 Q 164 401.01 145.5 386.01 Q 127 371.01 116 353.01 L 149 320.01 L 64 256.01 L 64 320.01 Q 64 351.01 82 378.51 Q 100 406.01 128 426.01 Q 156 446.01 190 457.51 Q 224 469.01 256 469.01 Q 288 469.01 322 457.51 Q 356 446.01 384.5 426.01 Q 413 406.01 430.5 378.51 Q 448 351.01 448 320.01 L 448 256.01 L 363 320.01 L 396 353.01 Q 385 371.01 366.5 386.01 Q 348 401.01 324 411.01 Q 303 420.01 277 425.01 L 277 235.01 L 341 235.01 L 341 192.01 L 277 192.01 L 277 167.01 Q 296 160.01 308 143.51 Q 320 127.00999999999999 320 107.00999999999999 Q 320 80.00999999999999 301.5 61.50999999999999 Q 283 43.00999999999999 256 43.01 z M 256 85.00999999999999 Q 265 85.00999999999999 271 91.50999999999999 Q 277 98.00999999999999 277 107.00999999999999 Q 277 116.00999999999999 271 122.00999999999999 Q 265 128.01 256 128.01 Q 247 128.01 241 122.00999999999999 Q 235 116.00999999999999 235 107.00999999999999 Q 235 98.00999999999999 241 91.50999999999999 Q 247 85.00999999999999 256 85.00999999999999 z" stroke-linecap="round" />
</g>
<g transform="matrix(1.35 1.35 -1.35 1.35 401.13 172.86)"  >
<path style="stroke: rgb(0,0,0); stroke-width: 0; stroke-dasharray: none; stroke-linecap: butt; stroke-dashoffset: 0; stroke-linejoin: miter; stroke-miterlimit: 4; fill: rgb(0,0,0); fill-rule: nonzero; opacity: 1;" vector-effect="non-scaling-stroke"  transform=" translate(-50, -50)" d="M 16.28 19.945 L 19.957 16.32 C 22.060000000000002 14.166 25.578000000000003 14.166 27.681 16.32 L 50.007000000000005 38.595 L 72.333 16.32 C 74.43599999999999 14.166 77.954 14.166 80.054 16.32 L 83.68 19.945 C 85.834 22.046 85.834 25.566000000000003 83.68 27.668 L 61.405 49.993 L 83.68 72.32 C 85.834 74.422 85.834 77.939 83.68 80.04299999999999 L 80.054 83.72099999999999 C 77.95400000000001 85.82 74.436 85.82 72.333 83.72099999999999 L 50.007 61.393 L 27.681 83.721 C 25.578 85.82000000000001 22.060000000000002 85.82000000000001 19.957 83.721 L 16.28 80.043 C 14.180000000000001 77.93900000000001 14.180000000000001 74.42200000000001 16.28 72.32000000000001 L 38.606 49.99300000000001 L 16.28 27.667 C 14.18 25.566 14.18 22.046 16.28 19.945 z" stroke-linecap="round" />
</g>
</svg>